<?xml version="1.0" encoding="UTF-8"?>
<!DOCTYPE svg  PUBLIC '-//W3C//DTD SVG 1.1//EN'  'http://www.w3.org/Graphics/SVG/1.1/DTD/svg11.dtd'>
<svg clip-rule="evenodd" stroke-linecap="round" stroke-linejoin="round" stroke-miterlimit="10" version="1.1" viewBox="0 0 876 644" xml:space="preserve" xmlns="http://www.w3.org/2000/svg" xmlns:vectornator="http://vectornator.io">
<defs>
<radialGradient id="a" cx="438" cy="337.94" r="303.84" gradientUnits="userSpaceOnUse">
<stop stop-color="#a670f7" offset=".020833"/>
<stop stop-color="#1245f3" offset=".67083"/>
</radialGradient>
</defs>
<g vectornator:layerName="Untitled">

<path d="m461.51 445.24c27.67 20.45 62.61 38.45 97.68 40.45 35.77 2.04 73.43-8.72 102.98-27.64 31.93-20.44 43.81-65.65 47.35-101.69 3.05-31.14 4.22-62.41 3.38-93.68-0.847-31.707-0.914-60.81-0.2-87.31 0.56-20.81 29.07-20.36 28.77-0.02-0.4 27.147-0.364 54.297 0.11 81.45 0.83 46.87 0 87.92-8.41 132.85-4.394 23.5-13.14 44.797-26.24 63.89-9.73 14.18-22.32 24.91-37.61 33.59-36.91 20.94-83.04 32.47-124.94 25.91-38.62-6.03-74.38-25.32-105.28-48.54-0.26-0.193-0.517-0.19-0.77 0.01-19.507 15.313-40.857 27.87-64.05 37.67-24.754 10.46-50.364 14.963-76.83 13.51-34.48-1.89-70.29-14.07-98.91-32.14-28.16-17.79-46.43-52.08-54.13-83.93-4.73-19.58-8-45.9-8.87-65.2-1.4-30.947-1.734-61.907-1-92.88 0.613-25.627 0.59-47.273-0.07-64.94-0.75-20.24 26.36-21.37 28.05-3.61 0.433 4.547 1.05 58.31 0.38 80.62-1.22 41.2-0.16 78.57 5.07 116.25 4.88 35.12 18 72.91 50.3 91.9 26.46 15.55 58.72 25.64 89.63 25.52 39.51-0.16 75.52-18.57 107.02-40.91 0.082-0.062 0.133-0.157 0.137-0.26s-0.039-0.203-0.117-0.27c-29.8-25.18-57.05-61.69-65.62-100.29-9.84-44.37 0.23-92.77 19.9-133.49 6.91-14.29 16.25-24.4 30.5-31.6 26.61-13.45 60-12.79 84.87 4.07 11.73 7.96 18.7 18.45 24.96 32.15 16.81 36.82 25.3 79 19.02 119.25-6.59 42.36-34.85 81.1-67.07 108.87-0.067 0.054-0.104 0.136-0.102 0.222s0.043 0.166 0.112 0.218zm-49.17-42.25c7.8 8.81 16.34 16.53 24.97 24.49 0.2 0.187 0.4 0.19 0.6 0.01 22.92-20.18 42.48-41.7 54.66-70.07 16.55-38.57 9.47-84.52-6.19-121.99-6.29-15.06-10.96-24.66-24.95-31.01-16.27-7.4-36.51-5.78-51.86 3.36-11.43 6.82-16.29 19.63-20.94 31.34-11.37 28.69-16.6 58.65-13.17 89.49 2.96 26.6 18.54 53.66 36.88 74.38z" fill="url(#a)" vectornator:layerName="path"/>
</g>

</svg>
